<?xml version="1.0" encoding="UTF-8" standalone="no"?><svg xmlns="http://www.w3.org/2000/svg" xmlns:xlink="http://www.w3.org/1999/xlink" contentScriptType="application/ecmascript" contentStyleType="text/css" height="330px" preserveAspectRatio="none" style="width:1319px;height:330px;background:#FFFFFF;" version="1.1" viewBox="0 0 1319 330" width="1319px" zoomAndPan="magnify"><defs><filter height="300%" id="f1ds5x8b2j1kcm" width="300%" x="-1" y="-1"><feGaussianBlur result="blurOut" stdDeviation="2.0"/><feColorMatrix in="blurOut" result="blurOut2" type="matrix" values="0 0 0 0 0 0 0 0 0 0 0 0 0 0 0 0 0 0 .4 0"/><feOffset dx="4.0" dy="4.0" in="blurOut2" result="blurOut3"/><feBlend in="SourceGraphic" in2="blurOut3" mode="normal"/></filter></defs><g><!--MD5=[15e5ddc83016ae037314666173a341e2]
entity Administrateur--><ellipse cx="931" cy="14" fill="#FEFECE" filter="url(#f1ds5x8b2j1kcm)" rx="8" ry="8" style="stroke:#A80036;stroke-width:1.5;"/><path d="M931,22 L931,49 M918,30 L944,30 M931,49 L918,64 M931,49 L944,64 " fill="none" filter="url(#f1ds5x8b2j1kcm)" style="stroke:#A80036;stroke-width:1.5;"/><text fill="#000000" font-family="sans-serif" font-size="14" lengthAdjust="spacing" textLength="108" x="877" y="82.4951">Administrateur</text><ellipse cx="369.0271" cy="175.6054" fill="#FEFECE" filter="url(#f1ds5x8b2j1kcm)" rx="81.0271" ry="18.6054" style="stroke:#A80036;stroke-width:1.5;"/><text fill="#000000" font-family="sans-serif" font-size="14" lengthAdjust="spacing" textLength="121" x="307.2415" y="178.8718">Gestion du menu</text><ellipse cx="76.0634" cy="299.9127" fill="#FEFECE" filter="url(#f1ds5x8b2j1kcm)" rx="70.0634" ry="16.4127" style="stroke:#A80036;stroke-width:1.5;"/><text fill="#000000" font-family="sans-serif" font-size="14" lengthAdjust="spacing" textLength="89" x="26.5634" y="303.6602">Modification</text><ellipse cx="222.9072" cy="300.0911" fill="#FEFECE" filter="url(#f1ds5x8b2j1kcm)" rx="41.4072" ry="14.5911" style="stroke:#A80036;stroke-width:1.5;"/><text fill="#000000" font-family="sans-serif" font-size="14" lengthAdjust="spacing" textLength="38" x="198.982" y="303.8206">Ajout</text><ellipse cx="369.1952" cy="299.839" fill="#FEFECE" filter="url(#f1ds5x8b2j1kcm)" rx="69.6952" ry="16.339" style="stroke:#A80036;stroke-width:1.5;"/><text fill="#000000" font-family="sans-serif" font-size="14" lengthAdjust="spacing" textLength="88" x="320.1952" y="303.5866">Suppression</text><ellipse cx="738.0217" cy="175.6043" fill="#FEFECE" filter="url(#f1ds5x8b2j1kcm)" rx="133.5217" ry="29.1043" style="stroke:#A80036;stroke-width:1.5;"/><text fill="#000000" font-family="sans-serif" font-size="14" lengthAdjust="spacing" textLength="236" x="620.0217" y="178.451">Gestion des comptes utilisateurs</text><ellipse cx="738.1011" cy="300.1202" fill="#FEFECE" filter="url(#f1ds5x8b2j1kcm)" rx="68.6011" ry="16.1202" style="stroke:#A80036;stroke-width:1.5;"/><text fill="#000000" font-family="sans-serif" font-size="14" lengthAdjust="spacing" textLength="89" x="690.6011" y="303.8678">Modification</text><ellipse cx="879.9534" cy="300.0556" fill="#FEFECE" filter="url(#f1ds5x8b2j1kcm)" rx="38.4534" ry="14.5556" style="stroke:#A80036;stroke-width:1.5;"/><text fill="#000000" font-family="sans-serif" font-size="14" lengthAdjust="spacing" textLength="38" x="859.0903" y="303.5095">Ajout</text><ellipse cx="1022.24" cy="300.048" fill="#FEFECE" filter="url(#f1ds5x8b2j1kcm)" rx="68.24" ry="16.048" style="stroke:#A80036;stroke-width:1.5;"/><text fill="#000000" font-family="sans-serif" font-size="14" lengthAdjust="spacing" textLength="88" x="975.24" y="303.7956">Suppression</text><ellipse cx="996.1728" cy="175.3346" fill="#FEFECE" filter="url(#f1ds5x8b2j1kcm)" rx="89.6728" ry="20.3346" style="stroke:#A80036;stroke-width:1.5;"/><text fill="#000000" font-family="sans-serif" font-size="14" lengthAdjust="spacing" textLength="141" x="925.6728" y="178.1812">Prise de commande</text><ellipse cx="1214.1693" cy="175.6339" fill="#FEFECE" filter="url(#f1ds5x8b2j1kcm)" rx="93.6693" ry="21.1339" style="stroke:#A80036;stroke-width:1.5;"/><text fill="#000000" font-family="sans-serif" font-size="14" lengthAdjust="spacing" textLength="150" x="1139.1693" y="178.4805">Edition d'une facture</text><ellipse cx="553.7839" cy="299.8568" fill="#FEFECE" filter="url(#f1ds5x8b2j1kcm)" rx="79.7839" ry="18.3568" style="stroke:#A80036;stroke-width:1.5;"/><text fill="#000000" font-family="sans-serif" font-size="14" lengthAdjust="spacing" textLength="118" x="493.0356" y="303.2613">Authentification</text><!--MD5=[95c6bedfe8910fd52d1a470155e74a65]
link Administrateur to Gestion du menu--><path d="M876.858,58.379 C771.515,82.466 539.675,135.476 429.473,160.673 " fill="none" id="Administrateur-to-Gestion du menu" style="stroke:#A80036;stroke-width:1.0;"/><polygon fill="#A80036" points="424.319,161.852,433.9841,163.7457,429.1933,160.7377,432.2012,155.9469,424.319,161.852" style="stroke:#A80036;stroke-width:1.0;"/><!--MD5=[4628d5ee266ce781e4c03a89dae2770a]
reverse link Gestion du menu to Modification --><path d="M313.174,199.84 C252.697,225.1251 158.243,264.6152 108.756,285.3052 " fill="none" id="Gestion du menu-backto-Modification " style="stroke:#A80036;stroke-width:1.0;"/><polygon fill="none" points="310.739,193.271,331.891,192.015,316.139,206.188,310.739,193.271" style="stroke:#A80036;stroke-width:1.0;"/><!--MD5=[023fb5e1848906f8903eb1b89f52b9d5]
reverse link Gestion du menu to Ajout --><path d="M333.202,206.536 C302.765,232.0742 260.551,267.4934 238.237,286.2155 " fill="none" id="Gestion du menu-backto-Ajout " style="stroke:#A80036;stroke-width:1.0;"/><polygon fill="none" points="328.879,201.026,348.699,193.533,337.877,211.751,328.879,201.026" style="stroke:#A80036;stroke-width:1.0;"/><!--MD5=[3d33dd70122ff451e8f5523075188a72]
reverse link Gestion du menu to Suppression --><path d="M369,214.181 C369,237.4548 369,266.0868 369,283.4212 " fill="none" id="Gestion du menu-backto-Suppression " style="stroke:#A80036;stroke-width:1.0;"/><polygon fill="none" points="362,214.051,369,194.051,376,214.051,362,214.051" style="stroke:#A80036;stroke-width:1.0;"/><!--MD5=[22fa48da878eb1d8fc35a90d5f6b3bec]
link Administrateur to Gestion des comptes utilisateurs--><path d="M876.982,81.965 C847.237,101.769 810.765,126.053 782.647,144.774 " fill="none" id="Administrateur-to-Gestion des comptes utilisateurs" style="stroke:#A80036;stroke-width:1.0;"/><polygon fill="#A80036" points="778.208,147.729,787.916,146.0695,782.3696,144.9575,783.4816,139.411,778.208,147.729" style="stroke:#A80036;stroke-width:1.0;"/><!--MD5=[cf7a57560679e6541986fe54f15fb6ed]
reverse link Gestion des comptes utilisateurs to Modification--><path d="M738,224.887 C738,245.8764 738,268.9763 738,283.7156 " fill="none" id="Gestion des comptes utilisateurs-backto-Modification" style="stroke:#A80036;stroke-width:1.0;"/><polygon fill="none" points="731,224.604,738,204.604,745,224.6039,731,224.604" style="stroke:#A80036;stroke-width:1.0;"/><!--MD5=[7a59e6299435e09008eef3cd02dffe8e]
reverse link Gestion des comptes utilisateurs to Ajout--><path d="M784.794,216.868 C812.845,241.0668 846.622,270.2053 865.467,286.4625 " fill="none" id="Gestion des comptes utilisateurs-backto-Ajout" style="stroke:#A80036;stroke-width:1.0;"/><polygon fill="none" points="780.086,222.0511,769.514,203.687,789.231,211.451,780.086,222.0511" style="stroke:#A80036;stroke-width:1.0;"/><!--MD5=[84061586382704c4c2060c88f5ad1fce]
reverse link Gestion des comptes utilisateurs to Suppression--><path d="M814.982,209.705 C872.923,234.6973 949.281,267.6336 991.183,285.7074 " fill="none" id="Gestion des comptes utilisateurs-backto-Suppression" style="stroke:#A80036;stroke-width:1.0;"/><polygon fill="none" points="812.093,216.082,796.501,201.734,817.638,203.227,812.093,216.082" style="stroke:#A80036;stroke-width:1.0;"/><!--MD5=[8322031d4eec5dd4e1d01af9fb9e1425]
link Administrateur to Prise de commande--><path d="M951.033,85.603 C961.761,106.813 974.627,132.247 983.843,150.466 " fill="none" id="Administrateur-to-Prise de commande" style="stroke:#A80036;stroke-width:1.0;"/><polygon fill="#A80036" points="986.104,154.936,985.6103,145.0995,983.8468,150.4745,978.4719,148.711,986.104,154.936" style="stroke:#A80036;stroke-width:1.0;"/><!--MD5=[6f2699e086a9bdca885f2c2468be2e46]
link Administrateur to Edition d'une facture--><path d="M985.23,70.624 C1038.72,94.91 1119.49,131.588 1169.38,154.238 " fill="none" id="Administrateur-to-Edition d'une facture" style="stroke:#A80036;stroke-width:1.0;"/><polygon fill="#A80036" points="1174.1,156.385,1167.5645,149.017,1169.5489,154.3144,1164.2515,156.2987,1174.1,156.385" style="stroke:#A80036;stroke-width:1.0;"/><!--MD5=[7f9c7813711b3f4915433ab578961a96]
link Gestion des comptes utilisateurs to Authentification--><path d="M697.62,203.383 C663.137,226.3409 614.348,258.8229 583.446,279.3962 " fill="none" id="Gestion des comptes utilisateurs-to-Authentification" style="stroke:#A80036;stroke-width:1.0;stroke-dasharray:7.0,7.0;"/><polygon fill="#A80036" points="579.02,282.3426,588.7281,280.6837,583.1817,279.5713,584.2941,274.0249,579.02,282.3426" style="stroke:#A80036;stroke-width:1.0;"/><text fill="#000000" font-family="sans-serif" font-size="13" lengthAdjust="spacing" textLength="61" x="647" y="247.5669">«include»</text><!--MD5=[d545a5c9a7b0f4f7857b5690e2c6fe3c]
link Gestion du menu to Authentification--><path d="M394.336,193.276 C428.379,215.818 488.756,255.7979 524.71,279.6054 " fill="none" id="Gestion du menu-to-Authentification" style="stroke:#A80036;stroke-width:1.0;stroke-dasharray:7.0,7.0;"/><polygon fill="#A80036" points="528.97,282.4264,523.6756,274.1216,524.8015,279.6653,519.2578,280.7912,528.97,282.4264" style="stroke:#A80036;stroke-width:1.0;"/><text fill="#000000" font-family="sans-serif" font-size="13" lengthAdjust="spacing" textLength="61" x="480" y="247.5669">«include»</text><!--MD5=[3bdee8b909425ebac4f7dfccd5d6421a]
@startuml
:Administrateur: - -> (Gestion du menu)

(Gestion du menu) <|- - (Modification )
(Gestion du menu) <|- - (Ajout )
(Gestion du menu) <|- - (Suppression )


:Administrateur: - -> (Gestion des comptes utilisateurs)
(Gestion des comptes utilisateurs) <|- -(Modification)
(Gestion des comptes utilisateurs) <|- - (Ajout)
(Gestion des comptes utilisateurs) <|- - (Suppression)

:Administrateur: - -> (Prise de commande)
:Administrateur: - -> (Edition d'une facture)


(Gestion des comptes utilisateurs) ..> (Authentification) : <<include>>
(Gestion du menu) ..> (Authentification) : <<include>>
@enduml

PlantUML version 1.2021.15beta6(Unknown compile time)
(GPL source distribution)
Java Runtime: Java(TM) SE Runtime Environment
JVM: Java HotSpot(TM) 64-Bit Server VM
Default Encoding: UTF-8
Language: en
Country: US
--></g></svg>