<?xml version="1.0" encoding="UTF-8" standalone="no"?><svg xmlns="http://www.w3.org/2000/svg" xmlns:xlink="http://www.w3.org/1999/xlink" contentScriptType="application/ecmascript" contentStyleType="text/css" height="322px" preserveAspectRatio="none" style="width:863px;height:322px;background:#FFFFFF;" version="1.1" viewBox="0 0 863 322" width="863px" zoomAndPan="magnify"><defs><filter height="300%" id="f1teha90d8wcta" width="300%" x="-1" y="-1"><feGaussianBlur result="blurOut" stdDeviation="2.0"/><feColorMatrix in="blurOut" result="blurOut2" type="matrix" values="0 0 0 0 0 0 0 0 0 0 0 0 0 0 0 0 0 0 .4 0"/><feOffset dx="4.0" dy="4.0" in="blurOut2" result="blurOut3"/><feBlend in="SourceGraphic" in2="blurOut3" mode="normal"/></filter></defs><g><!--MD5=[0ba5ee7700168656dc1b457c6fe9fdac]
entity Client--><ellipse cx="447.5" cy="14" fill="#FEFECE" filter="url(#f1teha90d8wcta)" rx="8" ry="8" style="stroke:#A80036;stroke-width:1.5;"/><path d="M447.5,22 L447.5,49 M434.5,30 L460.5,30 M447.5,49 L434.5,64 M447.5,49 L460.5,64 " fill="none" filter="url(#f1teha90d8wcta)" style="stroke:#A80036;stroke-width:1.5;"/><text fill="#000000" font-family="sans-serif" font-size="14" lengthAdjust="spacing" textLength="43" x="426" y="82.4951">Client</text><ellipse cx="102.3591" cy="171.6718" fill="#FEFECE" filter="url(#f1teha90d8wcta)" rx="96.3591" ry="21.6718" style="stroke:#A80036;stroke-width:1.5;"/><text fill="#000000" font-family="sans-serif" font-size="14" lengthAdjust="spacing" textLength="156" x="24.3591" y="174.5185">Consultation du menu</text><ellipse cx="333.5673" cy="171.7135" fill="#FEFECE" filter="url(#f1teha90d8wcta)" rx="99.0673" ry="22.2135" style="stroke:#A80036;stroke-width:1.5;"/><text fill="#000000" font-family="sans-serif" font-size="14" lengthAdjust="spacing" textLength="162" x="252.5673" y="174.5601">Remplissage du panier</text><ellipse cx="580.3717" cy="171.3743" fill="#FEFECE" filter="url(#f1teha90d8wcta)" rx="112.3717" ry="24.8743" style="stroke:#A80036;stroke-width:1.5;"/><text fill="#000000" font-family="sans-serif" font-size="14" lengthAdjust="spacing" textLength="191" x="484.8717" y="174.221">Choix du mode de livraison</text><ellipse cx="789.5597" cy="171.282" fill="#FEFECE" filter="url(#f1teha90d8wcta)" rx="61.5597" ry="14.782" style="stroke:#A80036;stroke-width:1.5;"/><text fill="#000000" font-family="sans-serif" font-size="14" lengthAdjust="spacing" textLength="69" x="752.0597" y="175.0295">Paiement</text><ellipse cx="456.2839" cy="291.8568" fill="#FEFECE" filter="url(#f1teha90d8wcta)" rx="79.7839" ry="18.3568" style="stroke:#A80036;stroke-width:1.5;"/><text fill="#000000" font-family="sans-serif" font-size="14" lengthAdjust="spacing" textLength="118" x="395.5356" y="295.2613">Authentification</text><!--MD5=[a02caa38a3a5ad6dc8d6e8cb4f04d878]
link Client to Consultation du menu--><path d="M425.919,53.788 C372.654,73.01 233.669,123.165 156.357,151.065 " fill="none" id="Client-to-Consultation du menu" style="stroke:#A80036;stroke-width:1.0;"/><polygon fill="#A80036" points="151.355,152.87,161.1784,153.5775,156.0581,151.1728,158.4628,146.0525,151.355,152.87" style="stroke:#A80036;stroke-width:1.0;"/><!--MD5=[bea3bcfe8c12dae55c40788ae97258bb]
link Client to Remplissage du panier--><path d="M425.789,69.711 C405.759,91.586 376.143,123.93 355.897,146.04 " fill="none" id="Client-to-Remplissage du panier" style="stroke:#A80036;stroke-width:1.0;"/><polygon fill="#A80036" points="352.481,149.771,361.5087,145.834,355.8574,146.0832,355.6082,140.4318,352.481,149.771" style="stroke:#A80036;stroke-width:1.0;"/><!--MD5=[220b6dbc2049f04f7df213aab95d20e8]
link Client to Choix du mode de livraison--><path d="M469.165,66.28 C491.523,87.21 526.538,119.987 551.323,143.188 " fill="none" id="Client-to-Choix du mode de livraison" style="stroke:#A80036;stroke-width:1.0;"/><polygon fill="#A80036" points="555.21,146.826,551.3737,137.755,551.56,143.4088,545.9062,143.5951,555.21,146.826" style="stroke:#A80036;stroke-width:1.0;"/><!--MD5=[0b7e3234eb9ebd1d2515d3b748b969cb]
link Client to Paiement--><path d="M469.153,53.882 C526.08,74.606 680.475,130.811 752.088,156.881 " fill="none" id="Client-to-Paiement" style="stroke:#A80036;stroke-width:1.0;"/><polygon fill="#A80036" points="757.099,158.705,750.0097,151.8682,752.4005,156.995,747.2737,159.3858,757.099,158.705" style="stroke:#A80036;stroke-width:1.0;"/><!--MD5=[9799e0e05cc0a6bfb700b9798222b571]
link Consultation du menu to Authentification--><path d="M153.975,189.731 C222.096,212.5344 341.326,252.4461 407.948,274.7475 " fill="none" id="Consultation du menu-to-Authentification" style="stroke:#A80036;stroke-width:1.0;stroke-dasharray:7.0,7.0;"/><polygon fill="#A80036" points="413.046,276.454,405.7812,269.804,408.3046,274.8669,403.2417,277.3903,413.046,276.454" style="stroke:#A80036;stroke-width:1.0;"/><text fill="#000000" font-family="sans-serif" font-size="13" lengthAdjust="spacing" textLength="61" x="312.5" y="239.5669">«include»</text><!--MD5=[7cf1cc7a6623ea84598d9f0b7d36a68c]
link Remplissage du panier to Authentification--><path d="M354.925,193.141 C377.307,214.7045 412.233,248.3522 434.739,270.0355 " fill="none" id="Remplissage du panier-to-Authentification" style="stroke:#A80036;stroke-width:1.0;stroke-dasharray:7.0,7.0;"/><polygon fill="#A80036" points="438.516,273.6739,434.8093,264.5492,434.915,270.2051,429.2591,270.3108,438.516,273.6739" style="stroke:#A80036;stroke-width:1.0;"/><text fill="#000000" font-family="sans-serif" font-size="13" lengthAdjust="spacing" textLength="61" x="407.5" y="239.5669">«include»</text><!--MD5=[2bd5dc3229fca29aa7e25070cccb5947]
link Choix du mode de livraison to Authentification--><path d="M556.002,195.912 C533.316,217.5907 499.902,249.5229 478.169,270.2925 " fill="none" id="Choix du mode de livraison-to-Authentification" style="stroke:#A80036;stroke-width:1.0;stroke-dasharray:7.0,7.0;"/><polygon fill="#A80036" points="474.518,273.781,483.7883,270.4551,478.1329,270.3267,478.2614,264.6713,474.518,273.781" style="stroke:#A80036;stroke-width:1.0;"/><text fill="#000000" font-family="sans-serif" font-size="13" lengthAdjust="spacing" textLength="61" x="523.5" y="239.5669">«include»</text><!--MD5=[783beae61412c227063acf63f0d7ba2c]
link Paiement to Authentification--><path d="M757.294,184.321 C718.498,198.524 651.32,223.0051 593.5,243.5 C563.903,253.9908 530.623,265.5355 504.276,274.6163 " fill="none" id="Paiement-to-Authentification" style="stroke:#A80036;stroke-width:1.0;stroke-dasharray:7.0,7.0;"/><polygon fill="#A80036" points="499.439,276.2824,509.2511,277.1328,504.1663,274.6538,506.6453,269.5691,499.439,276.2824" style="stroke:#A80036;stroke-width:1.0;"/><text fill="#000000" font-family="sans-serif" font-size="13" lengthAdjust="spacing" textLength="61" x="638.5" y="239.5669">«include»</text><!--MD5=[1cd973fda6ea04f79d3679956e442d6d]
@startuml
:Client: - -> (Consultation du menu)
:Client: - -> (Remplissage du panier)
:Client: - -> (Choix du mode de livraison)
:Client: - -> (Paiement)
(Consultation du menu) ..> (Authentification) : <<include>>
(Remplissage du panier) ..> (Authentification) : <<include>>
(Choix du mode de livraison) ..> (Authentification) : <<include>>
(Paiement) ..> (Authentification) : <<include>>
@enduml

PlantUML version 1.2021.15beta6(Unknown compile time)
(GPL source distribution)
Java Runtime: Java(TM) SE Runtime Environment
JVM: Java HotSpot(TM) 64-Bit Server VM
Default Encoding: UTF-8
Language: en
Country: US
--></g></svg>