<?xml version="1.0" encoding="UTF-8" standalone="no"?><svg xmlns="http://www.w3.org/2000/svg" xmlns:xlink="http://www.w3.org/1999/xlink" contentScriptType="application/ecmascript" contentStyleType="text/css" height="353px" preserveAspectRatio="none" style="width:505px;height:353px;background:#FFFFFF;" version="1.1" viewBox="0 0 505 353" width="505px" zoomAndPan="magnify"><defs><filter height="300%" id="f16g0stl8r1k97" width="300%" x="-1" y="-1"><feGaussianBlur result="blurOut" stdDeviation="2.0"/><feColorMatrix in="blurOut" result="blurOut2" type="matrix" values="0 0 0 0 0 0 0 0 0 0 0 0 0 0 0 0 0 0 .4 0"/><feOffset dx="4.0" dy="4.0" in="blurOut2" result="blurOut3"/><feBlend in="SourceGraphic" in2="blurOut3" mode="normal"/></filter></defs><g><rect fill="#FFFFFF" filter="url(#f16g0stl8r1k97)" height="90.2031" style="stroke:#000000;stroke-width:2.0;" width="332.5" x="158.5" y="202.9609"/><rect fill="#FFFFFF" height="43.9375" style="stroke:none;stroke-width:1.0;" width="332.5" x="158.5" y="249.2266"/><line style="stroke:#A80036;stroke-width:1.0;stroke-dasharray:5.0,5.0;" x1="41" x2="41" y1="40.2969" y2="310.1641"/><line style="stroke:#A80036;stroke-width:1.0;stroke-dasharray:5.0,5.0;" x1="210.5" x2="210.5" y1="40.2969" y2="310.1641"/><line style="stroke:#A80036;stroke-width:1.0;stroke-dasharray:5.0,5.0;" x1="306.5" x2="306.5" y1="40.2969" y2="310.1641"/><line style="stroke:#A80036;stroke-width:1.0;stroke-dasharray:5.0,5.0;" x1="391.5" x2="391.5" y1="40.2969" y2="310.1641"/><line style="stroke:#A80036;stroke-width:1.0;stroke-dasharray:5.0,5.0;" x1="461" x2="461" y1="40.2969" y2="310.1641"/><rect fill="#FEFECE" filter="url(#f16g0stl8r1k97)" height="30.2969" style="stroke:#A80036;stroke-width:1.5;" width="69" x="5" y="5"/><text fill="#000000" font-family="sans-serif" font-size="14" lengthAdjust="spacing" textLength="55" x="12" y="24.9951">Visiteur</text><rect fill="#FEFECE" filter="url(#f16g0stl8r1k97)" height="30.2969" style="stroke:#A80036;stroke-width:1.5;" width="69" x="5" y="309.1641"/><text fill="#000000" font-family="sans-serif" font-size="14" lengthAdjust="spacing" textLength="55" x="12" y="329.1592">Visiteur</text><rect fill="#FEFECE" filter="url(#f16g0stl8r1k97)" height="30.2969" style="stroke:#A80036;stroke-width:1.5;" width="80" x="168.5" y="5"/><text fill="#000000" font-family="sans-serif" font-size="14" lengthAdjust="spacing" textLength="66" x="175.5" y="24.9951">Interface</text><rect fill="#FEFECE" filter="url(#f16g0stl8r1k97)" height="30.2969" style="stroke:#A80036;stroke-width:1.5;" width="80" x="168.5" y="309.1641"/><text fill="#000000" font-family="sans-serif" font-size="14" lengthAdjust="spacing" textLength="66" x="175.5" y="329.1592">Interface</text><rect fill="#FEFECE" filter="url(#f16g0stl8r1k97)" height="30.2969" style="stroke:#A80036;stroke-width:1.5;" width="70" x="269.5" y="5"/><text fill="#000000" font-family="sans-serif" font-size="14" lengthAdjust="spacing" textLength="56" x="276.5" y="24.9951">Gestion</text><rect fill="#FEFECE" filter="url(#f16g0stl8r1k97)" height="30.2969" style="stroke:#A80036;stroke-width:1.5;" width="70" x="269.5" y="309.1641"/><text fill="#000000" font-family="sans-serif" font-size="14" lengthAdjust="spacing" textLength="56" x="276.5" y="329.1592">Gestion</text><rect fill="#FEFECE" filter="url(#f16g0stl8r1k97)" height="30.2969" style="stroke:#A80036;stroke-width:1.5;" width="52" x="363.5" y="5"/><text fill="#000000" font-family="sans-serif" font-size="14" lengthAdjust="spacing" textLength="38" x="370.5" y="24.9951">Ajout</text><rect fill="#FEFECE" filter="url(#f16g0stl8r1k97)" height="30.2969" style="stroke:#A80036;stroke-width:1.5;" width="52" x="363.5" y="309.1641"/><text fill="#000000" font-family="sans-serif" font-size="14" lengthAdjust="spacing" textLength="38" x="370.5" y="329.1592">Ajout</text><rect fill="#FEFECE" filter="url(#f16g0stl8r1k97)" height="30.2969" style="stroke:#A80036;stroke-width:1.5;" width="35" x="442" y="5"/><text fill="#000000" font-family="sans-serif" font-size="14" lengthAdjust="spacing" textLength="21" x="449" y="24.9951">BD</text><rect fill="#FEFECE" filter="url(#f16g0stl8r1k97)" height="30.2969" style="stroke:#A80036;stroke-width:1.5;" width="35" x="442" y="309.1641"/><text fill="#000000" font-family="sans-serif" font-size="14" lengthAdjust="spacing" textLength="21" x="449" y="329.1592">BD</text><polygon fill="#A80036" points="198.5,67.4297,208.5,71.4297,198.5,75.4297,202.5,71.4297" style="stroke:#A80036;stroke-width:1.0;"/><line style="stroke:#A80036;stroke-width:1.0;" x1="41.5" x2="204.5" y1="71.4297" y2="71.4297"/><text fill="#000000" font-family="sans-serif" font-size="13" lengthAdjust="spacing" textLength="145" x="48.5" y="66.3638">Demande D'inscription</text><polygon fill="#A80036" points="294.5,96.5625,304.5,100.5625,294.5,104.5625,298.5,100.5625" style="stroke:#A80036;stroke-width:1.0;"/><line style="stroke:#A80036;stroke-width:1.0;" x1="210.5" x2="300.5" y1="100.5625" y2="100.5625"/><text fill="#000000" font-family="sans-serif" font-size="13" lengthAdjust="spacing" textLength="72" x="217.5" y="95.4966">Redirection</text><polygon fill="#A80036" points="379.5,125.6953,389.5,129.6953,379.5,133.6953,383.5,129.6953" style="stroke:#A80036;stroke-width:1.0;"/><line style="stroke:#A80036;stroke-width:1.0;" x1="306.5" x2="385.5" y1="129.6953" y2="129.6953"/><text fill="#000000" font-family="sans-serif" font-size="13" lengthAdjust="spacing" textLength="61" x="313.5" y="124.6294">Affichage</text><polygon fill="#A80036" points="449.5,154.8281,459.5,158.8281,449.5,162.8281,453.5,158.8281" style="stroke:#A80036;stroke-width:1.0;"/><line style="stroke:#A80036;stroke-width:1.0;" x1="391.5" x2="455.5" y1="158.8281" y2="158.8281"/><text fill="#000000" font-family="sans-serif" font-size="13" lengthAdjust="spacing" textLength="46" x="398.5" y="153.7622">Ajouter</text><polygon fill="#A80036" points="449.5,183.9609,459.5,187.9609,449.5,191.9609,453.5,187.9609" style="stroke:#A80036;stroke-width:1.0;"/><line style="stroke:#A80036;stroke-width:1.0;" x1="41.5" x2="455.5" y1="187.9609" y2="187.9609"/><text fill="#000000" font-family="sans-serif" font-size="13" lengthAdjust="spacing" textLength="214" x="48.5" y="182.895">Remplir le formulaire d'inscription</text><path d="M158.5,202.9609 L224.5,202.9609 L224.5,209.9609 L214.5,219.9609 L158.5,219.9609 L158.5,202.9609 " fill="#EEEEEE" style="stroke:#000000;stroke-width:1.0;"/><rect fill="none" height="90.2031" style="stroke:#000000;stroke-width:2.0;" width="332.5" x="158.5" y="202.9609"/><text fill="#000000" font-family="sans-serif" font-size="13" font-weight="bold" lengthAdjust="spacing" textLength="21" x="173.5" y="216.0278">alt</text><text fill="#000000" font-family="sans-serif" font-size="11" font-weight="bold" lengthAdjust="spacing" textLength="114" x="239.5" y="215.1714">[successful case]</text><polygon fill="#A80036" points="221.5,237.2266,211.5,241.2266,221.5,245.2266,217.5,241.2266" style="stroke:#A80036;stroke-width:1.0;"/><line style="stroke:#A80036;stroke-width:1.0;stroke-dasharray:2.0,2.0;" x1="215.5" x2="460.5" y1="241.2266" y2="241.2266"/><text fill="#000000" font-family="sans-serif" font-size="13" lengthAdjust="spacing" textLength="178" x="227.5" y="236.1606">Confirmation de l'inscription</text><line style="stroke:#000000;stroke-width:1.0;stroke-dasharray:2.0,2.0;" x1="158.5" x2="491" y1="250.2266" y2="250.2266"/><text fill="#000000" font-family="sans-serif" font-size="11" font-weight="bold" lengthAdjust="spacing" textLength="146" x="163.5" y="260.437">[some kind of failure]</text><polygon fill="#A80036" points="221.5,281.1641,211.5,285.1641,221.5,289.1641,217.5,285.1641" style="stroke:#A80036;stroke-width:1.0;"/><line style="stroke:#A80036;stroke-width:1.0;stroke-dasharray:2.0,2.0;" x1="215.5" x2="460.5" y1="285.1641" y2="285.1641"/><text fill="#000000" font-family="sans-serif" font-size="13" lengthAdjust="spacing" textLength="127" x="227.5" y="280.0981">Le client existe déja</text><!--MD5=[8b0bcba8b6fd68c44bb311385ed12b73]
@startuml
Visiteur -> Interface : Demande D'inscription 
Interface -> Gestion: Redirection
Gestion-> Ajout: Affichage
Ajout-> BD: Ajouter
Visiteur -> BD: Remplir le formulaire d'inscription

alt successful case

Interface <- - BD: Confirmation de l'inscription


else some kind of failure
Interface <- - BD: Le client existe déja

end
@enduml

PlantUML version 1.2021.15beta6(Unknown compile time)
(GPL source distribution)
Java Runtime: Java(TM) SE Runtime Environment
JVM: Java HotSpot(TM) 64-Bit Server VM
Default Encoding: UTF-8
Language: en
Country: US
--></g></svg>