<?xml version="1.0" encoding="UTF-8" standalone="no"?><svg xmlns="http://www.w3.org/2000/svg" xmlns:xlink="http://www.w3.org/1999/xlink" contentScriptType="application/ecmascript" contentStyleType="text/css" height="308px" preserveAspectRatio="none" style="width:529px;height:308px;background:#FFFFFF;" version="1.1" viewBox="0 0 529 308" width="529px" zoomAndPan="magnify"><defs><filter height="300%" id="f2uxf145mpqjw" width="300%" x="-1" y="-1"><feGaussianBlur result="blurOut" stdDeviation="2.0"/><feColorMatrix in="blurOut" result="blurOut2" type="matrix" values="0 0 0 0 0 0 0 0 0 0 0 0 0 0 0 0 0 0 .4 0"/><feOffset dx="4.0" dy="4.0" in="blurOut2" result="blurOut3"/><feBlend in="SourceGraphic" in2="blurOut3" mode="normal"/></filter></defs><g><rect fill="#FFFFFF" filter="url(#f2uxf145mpqjw)" height="90.2031" style="stroke:#000000;stroke-width:2.0;" width="223.5" x="197.5" y="157.6953"/><rect fill="#FFFFFF" height="43.9375" style="stroke:none;stroke-width:1.0;" width="223.5" x="197.5" y="203.9609"/><line style="stroke:#A80036;stroke-width:1.0;stroke-dasharray:5.0,5.0;" x1="35" x2="35" y1="40.2969" y2="264.8984"/><line style="stroke:#A80036;stroke-width:1.0;stroke-dasharray:5.0,5.0;" x1="249.5" x2="249.5" y1="40.2969" y2="264.8984"/><line style="stroke:#A80036;stroke-width:1.0;stroke-dasharray:5.0,5.0;" x1="391" x2="391" y1="40.2969" y2="264.8984"/><rect fill="#FEFECE" filter="url(#f2uxf145mpqjw)" height="30.2969" style="stroke:#A80036;stroke-width:1.5;" width="57" x="5" y="5"/><text fill="#000000" font-family="sans-serif" font-size="14" lengthAdjust="spacing" textLength="43" x="12" y="24.9951">Client</text><rect fill="#FEFECE" filter="url(#f2uxf145mpqjw)" height="30.2969" style="stroke:#A80036;stroke-width:1.5;" width="57" x="5" y="263.8984"/><text fill="#000000" font-family="sans-serif" font-size="14" lengthAdjust="spacing" textLength="43" x="12" y="283.8936">Client</text><rect fill="#FEFECE" filter="url(#f2uxf145mpqjw)" height="30.2969" style="stroke:#A80036;stroke-width:1.5;" width="80" x="207.5" y="5"/><text fill="#000000" font-family="sans-serif" font-size="14" lengthAdjust="spacing" textLength="66" x="214.5" y="24.9951">Interface</text><rect fill="#FEFECE" filter="url(#f2uxf145mpqjw)" height="30.2969" style="stroke:#A80036;stroke-width:1.5;" width="80" x="207.5" y="263.8984"/><text fill="#000000" font-family="sans-serif" font-size="14" lengthAdjust="spacing" textLength="66" x="214.5" y="283.8936">Interface</text><rect fill="#FEFECE" filter="url(#f2uxf145mpqjw)" height="30.2969" style="stroke:#A80036;stroke-width:1.5;" width="35" x="372" y="5"/><text fill="#000000" font-family="sans-serif" font-size="14" lengthAdjust="spacing" textLength="21" x="379" y="24.9951">BD</text><rect fill="#FEFECE" filter="url(#f2uxf145mpqjw)" height="30.2969" style="stroke:#A80036;stroke-width:1.5;" width="35" x="372" y="263.8984"/><text fill="#000000" font-family="sans-serif" font-size="14" lengthAdjust="spacing" textLength="21" x="379" y="283.8936">BD</text><polygon fill="#A80036" points="237.5,67.4297,247.5,71.4297,237.5,75.4297,241.5,71.4297" style="stroke:#A80036;stroke-width:1.0;"/><line style="stroke:#A80036;stroke-width:1.0;" x1="35.5" x2="243.5" y1="71.4297" y2="71.4297"/><text fill="#000000" font-family="sans-serif" font-size="13" lengthAdjust="spacing" textLength="190" x="42.5" y="66.3638">Entrer Log in et mot de passe</text><polygon fill="#A80036" points="379.5,96.5625,389.5,100.5625,379.5,104.5625,383.5,100.5625" style="stroke:#A80036;stroke-width:1.0;"/><line style="stroke:#A80036;stroke-width:1.0;" x1="249.5" x2="385.5" y1="100.5625" y2="100.5625"/><text fill="#000000" font-family="sans-serif" font-size="13" lengthAdjust="spacing" textLength="72" x="256.5" y="95.4966">Vérification</text><line style="stroke:#A80036;stroke-width:1.0;" x1="391.5" x2="433.5" y1="129.6953" y2="129.6953"/><line style="stroke:#A80036;stroke-width:1.0;" x1="433.5" x2="433.5" y1="129.6953" y2="142.6953"/><line style="stroke:#A80036;stroke-width:1.0;" x1="392.5" x2="433.5" y1="142.6953" y2="142.6953"/><polygon fill="#A80036" points="402.5,138.6953,392.5,142.6953,402.5,146.6953,398.5,142.6953" style="stroke:#A80036;stroke-width:1.0;"/><text fill="#000000" font-family="sans-serif" font-size="13" lengthAdjust="spacing" textLength="124" x="398.5" y="124.6294">Temps de Réponse</text><path d="M197.5,157.6953 L263.5,157.6953 L263.5,164.6953 L253.5,174.6953 L197.5,174.6953 L197.5,157.6953 " fill="#EEEEEE" style="stroke:#000000;stroke-width:1.0;"/><rect fill="none" height="90.2031" style="stroke:#000000;stroke-width:2.0;" width="223.5" x="197.5" y="157.6953"/><text fill="#000000" font-family="sans-serif" font-size="13" font-weight="bold" lengthAdjust="spacing" textLength="21" x="212.5" y="170.7622">alt</text><text fill="#000000" font-family="sans-serif" font-size="11" font-weight="bold" lengthAdjust="spacing" textLength="114" x="278.5" y="169.9058">[successful case]</text><polygon fill="#A80036" points="260.5,191.9609,250.5,195.9609,260.5,199.9609,256.5,195.9609" style="stroke:#A80036;stroke-width:1.0;"/><line style="stroke:#A80036;stroke-width:1.0;stroke-dasharray:2.0,2.0;" x1="254.5" x2="390.5" y1="195.9609" y2="195.9609"/><text fill="#000000" font-family="sans-serif" font-size="13" lengthAdjust="spacing" textLength="118" x="266.5" y="190.895">Connexion réussie</text><line style="stroke:#000000;stroke-width:1.0;stroke-dasharray:2.0,2.0;" x1="197.5" x2="421" y1="204.9609" y2="204.9609"/><text fill="#000000" font-family="sans-serif" font-size="11" font-weight="bold" lengthAdjust="spacing" textLength="146" x="202.5" y="215.1714">[some kind of failure]</text><polygon fill="#A80036" points="260.5,235.8984,250.5,239.8984,260.5,243.8984,256.5,239.8984" style="stroke:#A80036;stroke-width:1.0;"/><line style="stroke:#A80036;stroke-width:1.0;stroke-dasharray:2.0,2.0;" x1="254.5" x2="390.5" y1="239.8984" y2="239.8984"/><text fill="#000000" font-family="sans-serif" font-size="13" lengthAdjust="spacing" textLength="111" x="266.5" y="234.8325">Erreur Connexion</text><!--MD5=[673b08017d2f3fd8bf714c80590fa1ec]
@startuml
Client -> Interface : Entrer Log in et mot de passe
Interface -> BD: Vérification
BD-> BD: Temps de Réponse

alt successful case

Interface <- - BD: Connexion réussie


else some kind of failure
Interface <- - BD: Erreur Connexion

end
@enduml

PlantUML version 1.2021.15beta6(Unknown compile time)
(GPL source distribution)
Java Runtime: Java(TM) SE Runtime Environment
JVM: Java HotSpot(TM) 64-Bit Server VM
Default Encoding: UTF-8
Language: en
Country: US
--></g></svg>